<svg xmlns="http://www.w3.org/2000/svg" viewBox="0 0 24 24" fill="none" stroke="#1e3a8a" stroke-width="2" stroke-linecap="round" stroke-linejoin="round">
  <!-- 문서(Document) 외곽선 -->
  <path d="M14 2H6a2 2 0 0 0-2 2v16a2 2 0 0 0 2 2h12a2 2 0 0 0 2-2V8z" />
  <path d="M14 2v6h6" />
  <!-- 비어있는 저울(Scale) 형상 -->
  <path d="M12 11v7" /> <!-- 중앙 기둥 -->
  <path d="M8 13h8" />  <!-- 가로대 -->
  <path d="M7 16a1 1 0 0 0 2 0" /> <!-- 왼쪽 접시 -->
  <path d="M15 16a1 1 0 0 0 2 0" /> <!-- 오른쪽 접시 -->
  <path d="M8 13v3" /> <!-- 왼쪽 줄 -->
  <path d="M16 13v3" /> <!-- 오른쪽 줄 -->
</svg>
